<?xml version="1.0" standalone="no"?>
<!DOCTYPE svg PUBLIC "-//W3C//DTD SVG 20010904//EN"
 "http://www.w3.org/TR/2001/REC-SVG-20010904/DTD/svg10.dtd">
<svg version="1.0" xmlns="http://www.w3.org/2000/svg"
 width="485.000000pt" height="514.000000pt" viewBox="0 0 485.000000 514.000000"
 preserveAspectRatio="xMidYMid meet">

<g transform="translate(0.000000,514.000000) scale(0.100000,-0.100000)"
fill="#000000" stroke="none">
<path d="M1253 4960 c-80 -48 -147 -136 -197 -260 -24 -57 -44 -87 -84 -124
-40 -38 -54 -58 -58 -88 -5 -28 -14 -43 -35 -55 -15 -9 -30 -25 -32 -35 -3
-10 -22 -25 -44 -34 -108 -46 -268 -180 -323 -272 -24 -40 -26 -42 -65 -36
-33 4 -44 2 -59 -15 -24 -26 -53 -131 -62 -224 l-7 -72 -74 -70 c-87 -83 -94
-112 -41 -164 17 -17 34 -31 37 -31 3 0 12 -4 19 -9 10 -6 8 -23 -13 -84 -14
-41 -25 -87 -25 -100 0 -18 -17 -42 -56 -78 -70 -68 -98 -112 -90 -144 8 -32
70 -93 111 -111 30 -12 33 -18 39 -71 9 -79 23 -127 44 -153 22 -27 36 -22
129 52 38 30 64 44 68 38 9 -15 -1 -133 -30 -355 -13 -99 -29 -227 -35 -285
-6 -58 -18 -154 -26 -214 -19 -144 -19 -144 14 -158 15 -7 29 -13 31 -14 2 -2
-7 -17 -18 -33 -32 -45 -106 -204 -137 -296 -38 -113 -44 -247 -16 -342 59
-192 267 -373 458 -398 66 -9 160 9 206 40 43 28 82 96 73 126 -8 24 -12 24
-51 0 -18 -11 -69 -32 -114 -46 -71 -24 -93 -27 -169 -23 -130 8 -178 42 -221
155 -65 172 -20 447 117 719 l56 112 51 7 c45 6 52 4 68 -17 16 -20 17 -35 10
-123 -4 -55 -6 -156 -6 -225 2 -106 6 -137 28 -204 15 -43 39 -99 53 -124 36
-62 124 -154 181 -190 147 -94 437 -170 717 -187 132 -9 131 -8 105 -45 -11
-16 -30 -50 -41 -76 -18 -40 -24 -45 -47 -41 -33 6 -79 -10 -87 -31 -4 -9 -10
-64 -14 -122 -8 -100 -33 -191 -64 -228 -8 -11 -7 -16 5 -23 20 -11 94 -72
130 -108 15 -14 28 -36 28 -48 0 -28 11 -29 35 -3 23 26 75 26 108 0 34 -27
161 -29 190 -3 18 17 19 17 32 0 11 -16 55 -17 632 -17 l621 0 7 23 8 22 4
-23 c4 -18 11 -22 39 -22 24 0 34 5 34 15 0 19 7 19 26 0 13 -13 62 -15 315
-15 294 0 300 0 289 19 -5 11 -20 27 -32 35 -21 15 -21 18 -10 74 20 99 16
152 -17 204 -17 26 -41 54 -55 64 -33 21 -33 26 5 80 16 24 44 74 61 110 37
78 35 130 -6 213 -14 31 -22 59 -17 64 4 4 35 15 67 23 68 18 198 76 209 93 4
7 31 23 61 36 70 31 135 100 179 188 48 98 65 191 65 352 0 190 -25 321 -111
583 l-72 217 4 105 c8 203 2 606 -10 715 -54 489 -193 850 -434 1124 -216 245
-568 445 -897 510 -300 60 -691 51 -1055 -24 -233 -48 -469 -160 -658 -312
-43 -35 -82 -63 -87 -63 -12 0 -13 -5 35 195 19 83 50 193 67 247 17 53 28
103 25 112 -9 22 -55 20 -94 -4z m67 -20 c0 -6 -7 -27 -15 -47 -23 -56 -112
-376 -134 -483 -11 -52 -25 -144 -31 -205 -41 -392 -139 -707 -293 -935 -59
-88 -174 -220 -191 -220 -7 0 -21 6 -31 14 -18 13 -18 16 18 67 73 106 165
412 251 829 24 116 46 292 53 429 l6 123 48 45 c37 34 52 58 64 99 29 100 100
202 183 262 46 32 72 40 72 22z m1287 -127 c-20 -2 -52 -2 -70 0 -17 2 0 4 38
4 39 0 53 -2 32 -4z m96 0 c-7 -2 -21 -2 -30 0 -10 3 -4 5 12 5 17 0 24 -2 18
-5z m498 -91 c-7 -2 -18 1 -23 6 -8 8 -4 9 13 5 13 -4 18 -8 10 -11z m49 -12
c8 -5 11 -10 5 -10 -5 0 -17 5 -25 10 -8 5 -10 10 -5 10 6 0 17 -5 25 -10z
m116 -57 c-8 -8 -36 5 -36 17 0 7 6 7 21 0 11 -7 18 -14 15 -17z m97 -39 c17
-9 53 -31 78 -49 25 -18 55 -36 67 -39 12 -4 22 -12 22 -18 0 -6 -6 -6 -15 2
-13 11 -14 10 -9 -3 7 -18 34 -31 34 -16 0 6 4 8 9 5 11 -7 2 -46 -10 -46 -6
0 -12 7 -15 15 -4 8 -11 15 -18 15 -19 1 -69 47 -62 58 3 6 -1 8 -11 6 -11 -3
-32 8 -51 26 -19 17 -38 27 -44 24 -7 -4 -8 -2 -4 4 4 7 1 12 -9 12 -10 0 -13
5 -9 12 5 7 2 9 -9 5 -9 -3 -18 0 -21 8 -6 16 16 10 77 -21z m227 -144 c11 -7
12 -12 3 -21 -13 -13 -33 -4 -33 17 0 16 9 18 30 4z m46 -46 c15 6 51 -40 40
-51 -4 -4 -9 3 -13 15 -3 12 -10 22 -15 22 -6 0 -7 -8 -4 -17 5 -13 0 -11 -21
7 -15 14 -30 26 -33 28 -2 2 2 7 10 12 11 7 16 5 18 -6 2 -9 10 -13 18 -10z
m-2816 -110 c0 -47 -4 -83 -9 -80 -4 3 -16 38 -26 78 -16 68 -16 72 0 85 10 7
22 10 26 7 5 -3 9 -43 9 -90z m-91 -200 c28 -59 51 -116 51 -127 0 -30 -11
-13 -55 83 -21 47 -44 92 -52 101 -7 8 -13 23 -13 32 0 39 21 11 69 -89z
m-169 -131 c40 -38 49 -53 30 -53 -12 0 -82 48 -92 63 -26 42 14 35 62 -10z
m-222 -61 c8 -1 11 2 7 8 -3 5 2 10 12 11 10 0 26 2 37 4 11 2 32 -10 52 -29
25 -25 41 -32 59 -28 15 2 25 0 25 -7 0 -7 4 -10 9 -7 5 3 14 -1 21 -9 8 -10
31 -15 71 -15 57 0 78 -12 42 -25 -10 -3 -29 -15 -42 -26 -23 -19 -23 -20 -5
-34 10 -8 15 -15 11 -15 -5 0 -1 -10 7 -22 15 -21 14 -24 -16 -55 l-31 -32 32
-27 c18 -15 30 -33 27 -40 -3 -8 -1 -14 4 -14 6 0 6 -10 0 -26 -6 -14 -10 -41
-10 -60 0 -19 -4 -34 -10 -34 -5 0 -10 -9 -10 -21 0 -11 -3 -18 -7 -16 -5 3
-9 -6 -9 -20 -2 -30 -2 -30 -38 -39 -22 -5 -27 -4 -21 6 5 9 4 11 -4 6 -7 -5
-31 7 -58 28 -26 20 -49 36 -53 36 -4 0 -13 -20 -20 -45 -7 -25 -17 -48 -22
-51 -4 -3 -5 -10 -2 -16 17 -27 -17 3 -66 57 -56 63 -117 111 -162 127 -23 8
-27 14 -22 34 4 17 1 26 -10 30 -9 3 -14 10 -11 14 3 5 -4 6 -15 3 -29 -8 -26
21 5 41 14 9 23 21 19 27 -3 5 12 26 34 47 31 29 41 47 47 82 12 83 17 100 29
100 19 0 36 46 30 80 -4 16 -3 37 1 47 6 15 11 9 28 -27 12 -25 28 -46 35 -48z
m-66 -542 c24 -19 55 -52 69 -73 25 -40 53 -57 95 -57 13 0 24 -4 24 -10 0 -5
10 -9 23 -8 12 0 29 0 37 -1 13 -1 13 -3 1 -10 -9 -6 -15 -27 -16 -54 0 -31
-9 -56 -29 -85 -25 -37 -26 -42 -13 -64 8 -12 21 -49 28 -81 15 -71 3 -108
-35 -105 -15 1 -22 7 -19 15 3 8 -3 13 -18 13 -19 0 -21 -2 -9 -10 13 -8 12
-10 -4 -10 -10 0 -36 5 -57 12 -35 10 -42 9 -62 -9 -32 -29 -48 -37 -41 -20 3
8 -2 17 -10 20 -9 4 -16 2 -16 -3 0 -6 -4 -10 -10 -10 -5 0 -10 8 -10 18 0 14
-2 15 -9 2 -6 -8 -8 -18 -5 -22 8 -12 -16 -49 -27 -43 -5 4 -9 17 -9 30 0 13
-4 26 -9 29 -4 3 -7 18 -5 33 4 23 3 24 -4 8 -8 -18 -10 -17 -16 11 -4 17 -6
35 -5 40 4 22 -3 31 -35 42 -19 7 -40 20 -48 29 -7 9 -8 14 -2 10 7 -4 11 4
10 23 -1 31 -22 40 -43 19 -19 -19 -23 18 -4 43 10 13 20 31 24 40 3 10 26 32
51 49 40 29 45 36 51 84 3 30 12 56 20 58 7 3 16 24 20 46 4 23 14 45 23 50
18 10 18 11 94 -49z m993 -253 c23 -169 77 -381 130 -508 5 -15 -6 -18 -87
-24 -96 -7 -296 -40 -306 -49 -8 -8 24 -7 93 3 102 16 221 22 274 15 51 -7 51
-7 86 -73 52 -97 101 -159 140 -178 19 -9 37 -14 41 -11 3 3 -4 25 -16 48 -28
55 -21 71 13 27 14 -19 49 -52 77 -72 52 -38 143 -79 153 -68 4 3 -2 22 -12
42 -27 52 -67 169 -75 216 l-6 40 22 -30 c44 -60 202 -215 219 -215 10 0 72
16 139 35 139 40 225 45 395 20 55 -7 102 -11 105 -9 3 3 10 44 15 91 l10 86
49 -96 49 -95 91 -7 c108 -8 236 -31 250 -45 20 -20 -30 -439 -74 -629 -26
-112 -73 -256 -117 -358 -32 -76 -39 -84 -87 -111 -179 -100 -475 -168 -776
-179 -248 -9 -407 16 -646 101 -213 77 -364 195 -395 310 -12 46 -15 61 -28
196 -5 52 -18 123 -29 158 -11 35 -16 65 -11 68 13 8 122 -44 115 -54 -3 -5
43 -12 102 -15 92 -6 122 -4 213 17 59 14 127 28 153 31 25 4 46 10 46 14 0 4
-13 14 -28 23 -25 15 -64 17 -278 18 -147 1 -263 -3 -284 -10 -19 -5 -40 -10
-46 -10 -6 0 -31 48 -55 108 l-44 107 -3 160 -2 160 21 -50 c12 -27 30 -70 41
-94 11 -26 22 -41 27 -35 5 5 16 73 25 152 18 159 71 381 142 591 53 156 135
336 146 318 4 -7 14 -66 23 -130z m-684 -224 c9 -18 9 -26 -1 -38 -20 -24 -26
-18 -38 33 -6 26 -14 56 -17 67 -8 23 36 -26 56 -62z m-177 -99 c9 -3 14 -9
11 -13 -2 -4 2 -8 10 -8 8 0 12 4 9 9 -3 4 4 8 15 8 17 0 20 -9 25 -77 4 -43
9 -98 11 -123 13 -141 20 -252 18 -301 -3 -82 -47 -207 -122 -346 -60 -110
-69 -122 -93 -123 -25 0 -28 4 -28 33 0 17 5 66 10 107 6 41 17 136 25 210 8
74 22 194 30 265 9 72 20 175 26 230 13 139 15 143 53 129z m155 -921 c1 -26
-3 -33 -18 -33 -11 0 -26 -3 -35 -6 -11 -4 -9 9 12 55 23 53 28 59 34 39 3
-13 6 -38 7 -55z m365 -85 c26 -76 52 -215 43 -225 -20 -19 -92 203 -102 314
l-6 58 20 -37 c11 -20 32 -69 45 -110z m286 12 c0 -5 -7 -10 -15 -10 -8 0 -15
5 -15 10 0 6 7 10 15 10 8 0 15 -4 15 -10z m2236 -125 c9 -14 43 -48 75 -75
l59 -49 -32 -25 c-52 -39 -132 -76 -182 -82 l-46 -7 24 59 c13 33 34 92 47
132 13 39 26 72 31 72 4 0 15 -11 24 -25z m-1196 -710 c0 -6 -85 -55 -97 -55
-6 0 -23 10 -39 23 l-29 22 60 6 c93 9 105 9 105 4z m240 -101 c25 -10 38 -20
32 -26 -10 -10 -122 -24 -122 -15 0 18 25 57 36 57 8 0 32 -7 54 -16z m-380
-63 c19 -36 -16 -75 -41 -45 -9 11 -9 21 -1 39 14 30 28 32 42 6z m898 -89
c-8 -31 -19 -46 -44 -61 -33 -20 -34 -22 -35 -88 l-2 -68 -9 51 c-9 46 -8 57
17 113 24 52 70 109 81 98 2 -1 -2 -21 -8 -45z m-328 -72 c-8 -6 -24 -10 -35
-10 -30 0 -101 -49 -114 -77 -19 -40 -12 -50 10 -15 23 35 84 72 119 72 24 0
23 -10 -16 -99 -29 -64 -29 -60 -4 -69 16 -6 -9 -25 -128 -99 -81 -50 -184
-110 -230 -133 l-84 -42 -76 17 c-42 9 -92 19 -110 23 l-34 7 26 24 c24 23 26
23 26 5 0 -13 6 -8 18 16 22 44 68 71 140 81 l57 8 -55 -4 c-30 -2 -66 -7 -79
-11 -67 -20 139 125 304 215 96 53 332 133 265 91z m377 -5 c-9 -8 -23 -38
-33 -67 -18 -56 -63 -142 -71 -134 -2 2 4 21 15 43 10 21 22 52 26 68 9 36 52
105 67 105 6 0 4 -7 -4 -15z m-736 -42 c27 -20 49 -40 49 -45 0 -4 -33 -26
-72 -49 -40 -23 -106 -66 -145 -96 -40 -29 -83 -53 -96 -53 -12 0 -55 16 -95
35 -85 40 -88 29 -4 -15 l57 -29 -52 -1 c-51 0 -53 1 -69 38 -10 20 -16 40
-16 45 1 4 -20 23 -48 43 l-49 35 72 49 72 48 32 -19 c32 -20 32 -20 43 1 11
21 11 21 41 -5 35 -28 44 -30 79 -10 16 8 29 10 36 4 15 -13 76 14 92 40 7 12
15 21 18 21 4 0 29 -17 55 -37z m-615 -74 c27 -11 59 -26 70 -34 18 -13 16
-14 -26 -16 l-45 -1 53 -8 c69 -10 93 -27 121 -88 23 -49 24 -50 62 -45 46 7
89 -3 89 -20 -1 -20 -68 -86 -105 -101 -32 -14 -36 -13 -72 11 -21 14 -62 48
-92 75 -63 57 -130 94 -201 109 l-51 11 6 56 c4 34 14 62 23 70 20 15 97 7
168 -19z m1096 -71 c3 -8 -22 -24 -64 -41 -38 -16 -117 -58 -176 -93 -153 -92
-285 -157 -308 -152 -14 3 -8 9 26 25 25 11 113 62 195 112 140 88 228 134
285 152 36 11 38 10 42 -3z m31 -68 c-4 -15 2 -23 27 -34 32 -13 32 -14 12
-25 -11 -6 -32 -11 -46 -11 -16 0 -26 -6 -26 -14 0 -15 -117 -60 -124 -48 -2
4 -7 26 -11 49 -7 41 -6 42 37 64 48 25 120 49 130 43 3 -2 4 -13 1 -24z m264
10 c-14 -11 -27 -20 -30 -20 -3 0 -3 9 0 20 4 13 14 20 31 20 l25 0 -26 -20z
m-1454 -36 c26 -14 71 -46 100 -72 28 -26 68 -59 87 -74 19 -15 31 -28 25 -28
-17 0 -67 34 -130 88 -53 46 -91 66 -188 102 -16 5 -26 14 -23 19 8 12 67 -4
129 -35z m1417 -19 c0 -5 -5 -3 -10 5 -5 8 -10 20 -10 25 0 6 5 3 10 -5 5 -8
10 -19 10 -25z m-8 -130 c43 -28 81 -55 85 -59 18 -19 -124 58 -143 78 -30 30
-54 81 -53 113 0 21 4 14 17 -27 17 -52 23 -58 94 -105z m-1492 135 c12 -7 15
-31 15 -107 0 -69 5 -107 16 -128 28 -56 9 -55 -59 2 -37 30 -71 59 -76 64 -5
5 4 44 24 94 33 86 45 97 80 75z m1090 -66 c0 -64 -17 -139 -34 -153 -12 -10
-196 7 -280 25 -28 6 -26 7 35 39 35 18 107 58 159 89 52 30 101 55 108 56 8
0 12 -18 12 -56z m-943 -17 c43 -35 91 -72 106 -82 27 -17 28 -19 10 -35 -10
-9 -58 -27 -107 -40 -87 -22 -90 -22 -103 -4 -31 43 -40 148 -17 209 10 26 31
17 111 -48z m1519 26 c-8 -8 -36 5 -36 17 0 7 6 7 21 0 11 -7 18 -14 15 -17z
m-366 -18 c14 -13 44 -34 65 -44 22 -11 33 -20 25 -21 -19 0 -112 53 -129 74
-23 27 9 20 39 -9z m30 -81 c0 -9 16 -32 36 -51 20 -19 34 -36 31 -39 -2 -3
-35 14 -72 38 l-67 43 29 12 c38 16 43 16 43 -3z m328 -61 c-10 -2 -26 -2 -35
0 -10 3 -2 5 17 5 19 0 27 -2 18 -5z m-437 -34 c32 -18 59 -35 59 -39 0 -12
-63 -32 -70 -23 -43 51 -69 93 -60 93 7 0 39 -14 71 -31z m-75 -14 c14 -22 14
-26 0 -47 -9 -12 -16 -20 -17 -18 -3 27 -5 90 -2 90 1 0 10 -11 19 -25z"/>
<path d="M306 3389 c3 -5 12 -9 21 -9 19 0 9 13 -12 16 -8 1 -13 -2 -9 -7z"/>
<path d="M2400 1877 c-37 -23 -38 -37 -5 -37 14 0 78 -12 143 -27 142 -33 298
-37 402 -9 80 21 198 65 205 76 9 14 -123 20 -422 18 -269 -2 -295 -3 -323
-21z m305 -17 c-3 -5 -15 -10 -26 -10 -10 0 -19 5 -19 10 0 6 12 10 26 10 14
0 23 -4 19 -10z"/>
<path d="M1855 1570 c-3 -5 -1 -10 4 -10 6 0 11 5 11 10 0 6 -2 10 -4 10 -3 0
-8 -4 -11 -10z"/>
<path d="M1940 1295 c-16 -19 -6 -76 20 -107 l19 -23 -8 36 c-8 33 -6 38 19
53 46 27 85 19 140 -28 19 -16 18 -13 -5 13 -53 60 -156 91 -185 56z"/>
<path d="M2455 501 c-41 -18 -105 -82 -105 -104 1 -11 20 9 38 39 4 6 25 23
46 38 32 22 50 26 110 27 49 0 65 3 51 9 -34 14 -98 11 -140 -9z"/>
<path d="M1750 526 c0 -2 8 -10 18 -17 15 -13 16 -12 3 4 -13 16 -21 21 -21
13z"/>
<path d="M1130 280 c14 -4 34 -8 45 -8 16 0 15 2 -5 8 -14 4 -34 8 -45 8 -16
0 -15 -2 5 -8z"/>
<path d="M1223 263 c29 -8 20 -20 -42 -57 -62 -38 -79 -42 -99 -26 -9 7 -9 7
-2 -2 16 -19 12 -24 -27 -40 -79 -33 -89 -38 -68 -35 16 2 20 -4 19 -29 -1
-27 1 -30 31 -31 17 -1 51 -10 75 -22 24 -12 58 -20 74 -20 24 1 26 3 8 6 -21
4 -20 6 18 46 22 22 37 44 33 48 -5 4 -30 18 -56 32 l-48 24 61 37 c33 20 65
34 70 31 19 -12 48 -81 55 -130 10 -82 15 -95 32 -95 14 0 15 10 9 79 -10 122
-30 171 -72 171 -12 0 -26 5 -29 10 -3 6 -18 9 -33 9 -17 -1 -21 -3 -9 -6z
m-100 -149 c18 -7 22 -40 7 -64 -8 -13 -14 -13 -52 0 -54 19 -63 50 -21 67 15
6 33 9 38 7 6 -2 18 -7 28 -10z"/>
<path d="M1365 260 c3 -5 8 -10 11 -10 2 0 4 5 4 10 0 6 -5 10 -11 10 -5 0 -7
-4 -4 -10z"/>
<path d="M1036 225 c-3 -9 0 -15 9 -15 16 0 20 16 6 24 -5 3 -11 -1 -15 -9z"/>
<path d="M1485 90 c-4 -17 -5 -34 -2 -36 2 -3 7 10 11 27 8 42 0 50 -9 9z"/>
<path d="M816 94 c-6 -16 2 -18 22 -5 11 7 11 9 -1 14 -9 3 -18 -1 -21 -9z"/>
<path d="M1428 35 c-2 -19 0 -35 4 -35 4 0 8 16 8 35 0 45 -7 45 -12 0z"/>
<path d="M1472 20 c0 -14 2 -19 5 -12 2 6 2 18 0 25 -3 6 -5 1 -5 -13z"/>
<path d="M1753 3 c9 -2 25 -2 35 0 9 3 1 5 -18 5 -19 0 -27 -2 -17 -5z"/>
</g>
</svg>
